<svg width="16" height="16" viewBox="0 0 16 16" fill="none" xmlns="http://www.w3.org/2000/svg">
<rect width="16" height="16" fill="white" fill-opacity="0.01"/>
<path fill-rule="evenodd" clip-rule="evenodd" d="M6.35897 0C2.84701 0 0 2.84701 0 6.35897C0 9.87094 2.84701 12.7179 6.35897 12.7179C7.89334 12.7179 9.30079 12.1745 10.3993 11.2696L14.9495 15.8198L15.0185 15.8793C15.2594 16.0581 15.6013 16.0382 15.8198 15.8198C16.0601 15.5794 16.0601 15.1898 15.8198 14.9495L11.2696 10.3993C12.1745 9.30079 12.7179 7.89334 12.7179 6.35897C12.7179 2.84701 9.87094 0 6.35897 0ZM6.35897 1.23077C9.1912 1.23077 11.4872 3.52675 11.4872 6.35897C11.4872 9.1912 9.1912 11.4872 6.35897 11.4872C3.52675 11.4872 1.23077 9.1912 1.23077 6.35897C1.23077 3.52675 3.52675 1.23077 6.35897 1.23077Z" fill="#dee2e6"/>
</svg>
