<svg viewBox="0 0 200 200"><path d="m106.53 170.37-52.62-141.82a7.42 7.42 0 0 0 -7-4.84l-25.91.09 55.36 152.27 26.39-.22a4.07 4.07 0 0 0 3.78-5.48z"/><path d="m176.14 24.56a4.47 4.47 0 0 0 -5.71 2.6l-7.54 20.15-7.52 20.13-7.55 20.16-7.52 20.14-7.53 20.14-7.53 20.14-4.17 11.15-4-11.23-1.91-5.38 4.4-11.76 7.52-20.14 7.53-20.15 7.53-20.14 7.54-20.15 7.53-20.14a4.44 4.44 0 1 0 -8.29-3.08l-7.53 20.14-7.53 20.14-7.54 20.14-7.53 20.15-7.51 20.14-.7 1.84-.65-1.83-5.24-14.76.92-2.45 7.52-20.13 7.54-20.15 7.52-20.13 7.55-20.16a4.44 4.44 0 0 0 -8.32-3.11l-7.54 20.15-7.53 20.13-7.54 20.15-4.73 12.69-4.53-12.79-7.19-20.29-7.17-20.26-7.19-20.28a4.44 4.44 0 0 0 -8.37 3l7.2 20.28 7.17 20.23 7.2 20.28 7.17 20.26 1.42 4 5.77 16.26s0 0 0 0l4.7 13.34 2.46 6.91 7.19 20.27.85 2.44a4.45 4.45 0 0 0 4.14 3 4.71 4.71 0 0 0 1.52-.26c1.78-.62 3.54-5 3.54-5l7.57-20.21 7.56-20.13 7.53-20.14 7.52-20.13 7.55-20.15 7.52-20.13 7.54-20.16a4.43 4.43 0 0 0 -2.61-5.73z"/><path d="m128.86 149.68-2.06-5.8-1.56 4.17-4.09 11 .78 2.22 3.76 10.7c.09-.14 5.7-15.06 5.7-15.06z"/><path d="m105.61 110.49 4.8-12.85-3.9-11-.72-2-1 2.61-4.67 12.51 4.62 13z"/><path d="m116.3 114.26-5 13.45-.63 1.68 2.87 8.13 1.73 4.88 4.34-11.58 1.32-3.54z"/><g fill="#fff"><path d="m42.6 31.98 3.08 5.57 6.25 1.21-4.35 4.65.79 6.32-5.77-2.7-5.77 2.7.78-6.32-4.35-4.65 6.26-1.21z"/><path d="m54.54 61.59 3.08 5.58 6.26 1.21-4.36 4.65.79 6.32-5.77-2.7-5.77 2.7.78-6.32-4.35-4.65 6.26-1.21z"/><path d="m65.38 89.33 3.03 5.6 6.25 1.26-4.39 4.62.73 6.33-5.75-2.75-5.79 2.65.84-6.32-4.32-4.69 6.27-1.15z"/><path d="m76.59 119.04 3.03 5.61 6.24 1.26-4.39 4.61.73 6.33-5.74-2.75-5.79 2.65.83-6.31-4.31-4.69 6.27-1.16z"/><path d="m86.61 148.51 3.03 5.6 6.24 1.26-4.39 4.62.73 6.33-5.75-2.75-5.79 2.65.84-6.32-4.31-4.69 6.27-1.15z"/></g></svg>